<svg width="32" height="42" viewBox="0 0 32 42" fill="none" xmlns="http://www.w3.org/2000/svg">
<g clip-path="url(#clip0_1_1820)">
<path d="M1.50025 0C0.671818 0 0.000244141 0.671573 0.000244141 1.5V40.5C0.000244141 41.3285 0.671818 42 1.50025 42H30.0003C30.8287 42 31.5003 41.3285 31.5003 40.5V8.00001L23.5003 0H1.50025Z" fill="#6AAA1E"/>
<path d="M23.5002 0L31.5003 8.00001H24.5002C23.948 8.00001 23.5002 7.55229 23.5002 7.00001V0Z" fill="black" fill-opacity="0.25"/>
<path fill-rule="evenodd" clip-rule="evenodd" d="M26.0003 16.5H5.50024V31H26.0003V16.5ZM6.50025 17.5H12.0003V21H6.50025V17.5ZM13.0003 17.5H18.5003V21H13.0003V17.5ZM19.5003 17.5H25.0003V21H19.5003V17.5ZM19.5003 22H25.0003V25.5H19.5003V22ZM19.5003 26.5H25.0003V30H19.5003V26.5ZM13.0003 22H18.5003V25.5H13.0003V22ZM13.0003 26.5H18.5003V30H13.0003V26.5ZM6.50025 22H12.0003V25.5H6.50025V22ZM6.50025 26.5H12.0003V30H6.50025V26.5Z" fill="white"/>
</g>
<defs>
<clipPath id="clip0_1_1820">
<rect width="31.5" height="42" fill="white" transform="translate(0.000244141)"/>
</clipPath>
</defs>
</svg>
