<svg width="42" height="42" viewBox="0 0 42 42" fill="none" xmlns="http://www.w3.org/2000/svg">
<g clip-path="url(#clip0_314_10188)">
<path d="M7 0C6.17157 0 5.5 0.671573 5.5 1.5V40.5C5.5 41.3285 6.17157 42 7 42H35.5C36.3285 42 37 41.3285 37 40.5V8.00001L29 0H7Z" fill="#6AAA1E"/>
<path d="M29 0L37 8.00001H30C29.4477 8.00001 29 7.55229 29 7.00001V0Z" fill="black" fill-opacity="0.25"/>
<path fill-rule="evenodd" clip-rule="evenodd" d="M31.5 16.5H11V31H31.5V16.5ZM12 17.5H17.5V21H12V17.5ZM18.5 17.5H24V21H18.5V17.5ZM25 17.5H30.5V21H25V17.5ZM25 22H30.5V25.5H25V22ZM25 26.5H30.5V30H25V26.5ZM18.5 22H24V25.5H18.5V22ZM18.5 26.5H24V30H18.5V26.5ZM12 22H17.5V25.5H12V22ZM12 26.5H17.5V30H12V26.5Z" fill="white"/>
</g>
<defs>
<clipPath id="clip0_314_10188">
<rect width="42" height="42" fill="white"/>
</clipPath>
</defs>
</svg>
