<svg width="32" height="43" viewBox="0 0 32 43" fill="none" xmlns="http://www.w3.org/2000/svg">
<path d="M31.5 7.2882V41.7497C31.5 42.0354 31.3894 42.3093 31.1925 42.5112C30.9955 42.7132 30.7285 42.8267 30.45 42.8267H1.05C0.771523 42.8267 0.504451 42.7132 0.307538 42.5112C0.110625 42.3093 0 42.0354 0 41.7497V1.90358C0 1.61797 0.110625 1.34405 0.307538 1.14208C0.504451 0.940121 0.771523 0.82666 1.05 0.82666H25.2L31.5 7.2882Z" fill="#5892B6"/>
<path opacity="0.2" d="M31.5002 7.2882H26.2502C25.9717 7.2882 25.7046 7.17474 25.5077 6.97277C25.3108 6.77081 25.2002 6.49689 25.2002 6.21128V0.82666L31.5002 7.2882Z" fill="black"/>
<path d="M12.6902 39.2881H10.9608V36.2852H12.6902V36.8069H11.5975V37.4663H12.6142V37.988H11.5975V38.7623H12.6902V39.2881ZM13.9554 37.6983H14.1649C14.3607 37.6983 14.5072 37.66 14.6045 37.5833C14.7017 37.5053 14.7503 37.3923 14.7503 37.2444C14.7503 37.0952 14.7092 36.985 14.6271 36.9137C14.5463 36.8425 14.4189 36.8069 14.245 36.8069H13.9554V37.6983ZM15.3932 37.2218C15.3932 37.545 15.2918 37.7921 15.0892 37.9633C14.8879 38.1345 14.601 38.22 14.2286 38.22H13.9554V39.2881H13.3187V36.2852H14.2779C14.6421 36.2852 14.9187 36.364 15.1077 36.5214C15.298 36.6775 15.3932 36.911 15.3932 37.2218ZM18.4042 36.2852V38.2283C18.4042 38.4501 18.3542 38.6445 18.2543 38.8116C18.1557 38.9786 18.0126 39.1067 17.825 39.1957C17.6374 39.2847 17.4156 39.3292 17.1595 39.3292C16.7734 39.3292 16.4735 39.2306 16.2599 39.0334C16.0463 38.8349 15.9395 38.5637 15.9395 38.22V36.2852H16.5742V38.1235C16.5742 38.3549 16.6207 38.5247 16.7138 38.6329C16.807 38.7411 16.961 38.7951 17.176 38.7951C17.3841 38.7951 17.5347 38.7411 17.6278 38.6329C17.7223 38.5233 17.7696 38.3522 17.7696 38.1194V36.2852H18.4042ZM19.1395 36.2852H20.0741C20.4999 36.2852 20.8087 36.3462 21.0004 36.468C21.1935 36.5885 21.29 36.7809 21.29 37.0452C21.29 37.2246 21.2475 37.3718 21.1626 37.4868C21.0791 37.6018 20.9675 37.671 20.8279 37.6942V37.7148C21.0182 37.7572 21.1551 37.8366 21.2386 37.953C21.3235 38.0694 21.366 38.2242 21.366 38.4172C21.366 38.6911 21.2667 38.9047 21.0682 39.058C20.871 39.2114 20.6026 39.2881 20.263 39.2881H19.1395V36.2852ZM19.7762 37.4745H20.146C20.3185 37.4745 20.4431 37.4478 20.5198 37.3944C20.5978 37.341 20.6368 37.2526 20.6368 37.1294C20.6368 37.0144 20.5944 36.9322 20.5095 36.8829C20.426 36.8323 20.2932 36.8069 20.111 36.8069H19.7762V37.4745ZM19.7762 37.9797V38.7623H20.1911C20.3664 38.7623 20.4958 38.7287 20.5793 38.6616C20.6629 38.5945 20.7046 38.4918 20.7046 38.3535C20.7046 38.1043 20.5266 37.9797 20.1706 37.9797H19.7762Z" fill="white"/>
<path d="M15.4 29.1853V16.6212C15.4 16.6212 12.25 14.4674 7 14.1084V25.9546C7 25.9546 12.95 26.3135 15.4 29.1853Z" fill="white"/>
<path d="M24.5001 25.9546V14.1084C19.2501 14.4674 16.1001 16.6212 16.1001 16.6212V29.1853C18.5501 26.3135 24.5001 25.9546 24.5001 25.9546Z" fill="white"/>
<path d="M25.2 15.9038V27.391C25.2 27.391 19.95 27.391 15.75 30.3705C11.55 27.391 6.3 27.391 6.3 27.391V15.9038H5.25V28.4679C5.25 28.4679 9.8 27.75 15.75 30.6218C21.7 27.75 26.25 28.4679 26.25 28.4679V15.9038H25.2Z" fill="white"/>
</svg>
