<svg width="32" height="43" viewBox="0 0 32 43" fill="none" xmlns="http://www.w3.org/2000/svg">
<path d="M31.7202 7.36584V41.8274C31.7202 42.113 31.6096 42.3869 31.4127 42.5889C31.2158 42.7908 30.9487 42.9043 30.6702 42.9043H1.27021C0.991738 42.9043 0.724666 42.7908 0.527753 42.5889C0.33084 42.3869 0.220215 42.113 0.220215 41.8274V1.98122C0.220215 1.6956 0.33084 1.42168 0.527753 1.21972C0.724666 1.01776 0.991738 0.904297 1.27021 0.904297H25.4202L31.7202 7.36584Z" fill="#B07408"/>
<path opacity="0.2" d="M31.7199 7.36584H26.4699C26.1914 7.36583 25.9244 7.25237 25.7275 7.05041C25.5305 6.84845 25.4199 6.57453 25.4199 6.28891V0.904297L31.7199 7.36584Z" fill="black"/>
<path d="M13.1257 39.3657H12.4992V36.3629H14.2204V36.8846H13.1257V37.6589H14.1444V38.1786H13.1257V39.3657ZM14.8078 36.3629H15.7424C16.1682 36.3629 16.477 36.4238 16.6687 36.5457C16.8617 36.6662 16.9583 36.8586 16.9583 37.1228C16.9583 37.3022 16.9158 37.4494 16.8309 37.5644C16.7474 37.6794 16.6358 37.7486 16.4961 37.7719V37.7924C16.6865 37.8349 16.8234 37.9143 16.9069 38.0307C16.9918 38.1471 17.0343 38.3018 17.0343 38.4949C17.0343 38.7687 16.935 38.9823 16.7365 39.1357C16.5393 39.289 16.2709 39.3657 15.9313 39.3657H14.8078V36.3629ZM15.4445 37.5521H15.8142C15.9868 37.5521 16.1114 37.5254 16.1881 37.472C16.2661 37.4186 16.3051 37.3303 16.3051 37.207C16.3051 37.092 16.2627 37.0099 16.1778 36.9606C16.0943 36.9099 15.9614 36.8846 15.7793 36.8846H15.4445V37.5521ZM15.4445 38.0574V38.8399H15.8594C16.0347 38.8399 16.1641 38.8064 16.2476 38.7393C16.3312 38.6722 16.3729 38.5695 16.3729 38.4312C16.3729 38.182 16.1949 38.0574 15.8389 38.0574H15.4445ZM19.5236 39.3657H17.4245V38.9241L18.1783 38.1621C18.4015 37.9335 18.5473 37.7753 18.6158 37.6877C18.6843 37.5987 18.7336 37.5165 18.7637 37.4412C18.7938 37.3659 18.8089 37.2878 18.8089 37.207C18.8089 37.0865 18.7753 36.9969 18.7082 36.938C18.6425 36.8791 18.5542 36.8497 18.4433 36.8497C18.3269 36.8497 18.2139 36.8764 18.1044 36.9298C17.9948 36.9832 17.8805 37.0592 17.7614 37.1578L17.4163 36.749C17.5642 36.623 17.6867 36.534 17.784 36.482C17.8812 36.43 17.9873 36.3903 18.1023 36.3629C18.2173 36.3341 18.3461 36.3198 18.4885 36.3198C18.676 36.3198 18.8417 36.354 18.9855 36.4224C19.1293 36.4909 19.2409 36.5868 19.3203 36.71C19.3997 36.8332 19.4394 36.9743 19.4394 37.1331C19.4394 37.2714 19.4148 37.4015 19.3655 37.5234C19.3176 37.6438 19.2422 37.7678 19.1396 37.8951C19.0382 38.0225 18.8588 38.2039 18.6014 38.4394L18.2153 38.8029V38.8317H19.5236V39.3657Z" fill="white"/>
<path d="M15.6202 29.2634V16.6993C15.6202 16.6993 12.4702 14.5455 7.22021 14.1865V26.0327C7.22021 26.0327 13.1702 26.3917 15.6202 29.2634Z" fill="white"/>
<path d="M24.7203 26.0327V14.1865C19.4703 14.5455 16.3203 16.6993 16.3203 16.6993V29.2634C18.7703 26.3917 24.7203 26.0327 24.7203 26.0327Z" fill="white"/>
<path d="M25.4202 15.9814V27.4686C25.4202 27.4686 20.1702 27.4686 15.9702 30.4481C11.7702 27.4686 6.52021 27.4686 6.52021 27.4686V15.9814H5.47021V28.5455C5.47021 28.5455 10.0202 27.8276 15.9702 30.6994C21.9202 27.8276 26.4702 28.5455 26.4702 28.5455V15.9814H25.4202Z" fill="white"/>
</svg>
