<svg width="20" height="20" viewBox="0 0 20 20" fill="none" xmlns="http://www.w3.org/2000/svg">
<path fill-rule="evenodd" clip-rule="evenodd" d="M0 10C0 15.523 4.477 20 10 20C15.523 20 20 15.523 20 10C20 4.477 15.523 0 10 0C4.477 0 0 4.477 0 10Z" fill="#0065FF"/>
<path d="M11 9C11 8.44772 10.5523 8 10 8C9.44772 8 9 8.44772 9 9V14C9 14.5523 9.44772 15 10 15C10.5523 15 11 14.5523 11 14V9Z" fill="white"/>
<path d="M10 7C10.5523 7 11 6.55228 11 6C11 5.44772 10.5523 5 10 5C9.44772 5 9 5.44772 9 6C9 6.55228 9.44772 7 10 7Z" fill="white"/>
</svg>
