<svg width="142" height="24" viewBox="0 0 142 24" fill="none" xmlns="http://www.w3.org/2000/svg">
<path fill-rule="evenodd" clip-rule="evenodd" d="M33.065 7.03982C31.6527 8.18435 30.9694 9.94516 30.9694 12.2783C30.9694 14.6113 31.6527 16.3721 33.065 17.5606C34.4774 18.7492 36.072 19.3215 37.94 19.3215C39.7623 19.3215 41.4024 18.7492 42.7692 17.5606C44.136 16.4161 44.8194 14.6553 44.8194 12.3222C44.8194 9.94516 44.136 8.22837 42.7692 7.03982C41.4024 5.85128 39.8078 5.27902 37.94 5.27902C36.072 5.27902 34.4318 5.85128 33.065 7.03982ZM34.8874 15.7999C34.2951 15.0515 33.9762 13.9069 33.9762 12.2783C33.9762 10.6935 34.2951 9.54898 34.8874 8.84466C35.5252 8.09632 36.2086 7.6121 36.9376 7.43601C37.1198 7.39199 37.302 7.34797 37.4387 7.34797C37.5754 7.30396 37.712 7.30396 37.8942 7.30396H37.8943C37.9854 7.30396 38.0651 7.31496 38.1449 7.32597C38.2246 7.33697 38.3043 7.34797 38.3954 7.34797C38.5321 7.34797 38.7144 7.39199 38.8967 7.43601C39.6256 7.6121 40.309 8.09632 40.9012 8.84466C41.4935 9.59301 41.8124 10.7816 41.8124 12.3222C41.8124 13.863 41.4935 15.0515 40.9012 15.7999C40.309 16.5482 39.6256 17.0324 38.8967 17.2085C38.8652 17.2161 38.8352 17.2237 38.806 17.2311C38.6659 17.2664 38.5463 17.2966 38.3954 17.2966C38.2132 17.3405 38.0765 17.3405 37.8943 17.3405C37.826 17.3405 37.7462 17.3295 37.6665 17.3185C37.5868 17.3075 37.5071 17.2966 37.4387 17.2966C37.2879 17.2966 37.1683 17.2664 37.0283 17.2311C36.9991 17.2237 36.969 17.2161 36.9376 17.2085C36.2086 17.0324 35.5252 16.5482 34.8874 15.7999Z" fill="#536483"/>
<path d="M46.3228 5.41104H50.0586L54.979 14.083L55.7079 15.9319H55.7535L55.7079 13.5107V5.41104H58.5781V19.1454H54.8424L49.9219 10.1652L49.1929 8.62451H49.1474L49.1929 11.0456V19.1454H46.3228V5.41104Z" fill="#536483"/>
<path d="M61.084 5.41104H63.9542V16.8122H69.6035V19.1454H61.084V5.41104Z" fill="#536483"/>
<path d="M67.8269 5.41104H71.1527L74.0684 10.2533L74.524 11.1777H74.6152L75.0708 10.2533L78.0321 5.41104H81.0846L75.9364 13.5548V19.1454H73.0662V13.5548L67.8269 5.41104Z" fill="#536483"/>
<path fill-rule="evenodd" clip-rule="evenodd" d="M83.2712 7.03982C81.8589 8.18435 81.1755 9.94516 81.1755 12.2783C81.1755 14.6113 81.9045 16.3721 83.2712 17.5606C84.6836 18.7492 86.2781 19.3215 88.146 19.3215C89.9684 19.3215 91.6086 18.7492 92.9753 17.5606C94.3421 16.4161 95.0255 14.6553 95.0255 12.3222C95.0255 9.94516 94.3421 8.22837 92.9753 7.03982C91.6086 5.85128 90.014 5.27902 88.146 5.27902C86.2781 5.27902 84.638 5.85128 83.2712 7.03982ZM85.0937 15.7999C84.5014 15.0515 84.1825 13.9069 84.1825 12.2783C84.1825 10.6935 84.5014 9.54898 85.0937 8.84466C85.7315 8.09632 86.4148 7.6121 87.1438 7.43601L87.1438 7.43601C87.3261 7.39199 87.5083 7.34797 87.645 7.34797C87.7816 7.30396 87.9183 7.30396 88.1004 7.30396H88.1006C88.1917 7.30396 88.2714 7.31496 88.3511 7.32597C88.4309 7.33697 88.5106 7.34797 88.6017 7.34797C88.7383 7.34797 88.9203 7.39193 89.1025 7.43592L89.1029 7.43601C89.8318 7.6121 90.5153 8.09632 91.1075 8.84466C91.6997 9.59301 92.0187 10.7816 92.0187 12.3222C92.0187 13.863 91.6997 15.0515 91.1075 15.7999C90.5153 16.5482 89.8318 17.0324 89.1029 17.2085C89.0714 17.2161 89.0413 17.2237 89.012 17.2311C88.872 17.2664 88.7524 17.2966 88.6017 17.2966C88.4195 17.3405 88.2828 17.3405 88.1006 17.3405C88.0322 17.3405 87.9525 17.3295 87.8728 17.3185C87.793 17.3075 87.7133 17.2966 87.645 17.2966C87.5087 17.2966 87.3271 17.2528 87.1455 17.2089L87.1438 17.2085C86.3693 17.0324 85.7315 16.5482 85.0937 15.7999Z" fill="#536483"/>
<path d="M96.5746 5.41104H104.502V7.74411H99.4449V11.0456H104.274V13.3786H99.4449V19.1454H96.5746V5.41104Z" fill="#536483"/>
<path d="M106.188 5.41104H114.115V7.74411H109.058V11.0456H113.887V13.3786H109.058V19.1454H106.188V5.41104Z" fill="#536483"/>
<path d="M115.8 19.1454V5.41104H118.671V19.1454H115.8Z" fill="#536483"/>
<path d="M131.634 5.71913V8.09622C131.132 7.92014 130.631 7.78808 130.085 7.70004C129.538 7.612 128.946 7.56798 128.307 7.56798C126.804 7.56798 125.666 8.00818 124.845 8.93261C124.026 9.81301 123.615 10.9575 123.615 12.3221C123.615 13.6428 123.98 14.7433 124.754 15.6237C125.529 16.504 126.622 16.9883 128.034 16.9883C128.536 16.9883 129.037 16.9443 129.629 16.9003C130.221 16.8122 130.813 16.6802 131.452 16.416L131.634 18.7491C131.543 18.7931 131.406 18.8372 131.269 18.8812C131.087 18.9252 130.904 18.9692 130.677 19.0132C130.313 19.1013 129.857 19.1453 129.31 19.2333C128.764 19.2773 128.216 19.3214 127.624 19.3214C127.533 19.3214 127.442 19.3214 127.397 19.3214C127.306 19.3214 127.215 19.3214 127.169 19.3214C125.529 19.2333 124.026 18.6171 122.659 17.5605C121.292 16.4601 120.608 14.7433 120.608 12.4542C120.608 10.2092 121.292 8.44838 122.613 7.21582C123.934 5.98325 125.757 5.36697 127.989 5.36697C128.581 5.36697 129.128 5.36697 129.583 5.41099C130.085 5.45501 130.54 5.54305 131.041 5.63109C131.132 5.67511 131.269 5.67511 131.361 5.71913C131.406 5.67511 131.497 5.71913 131.634 5.71913Z" fill="#536483"/>
<path d="M133.426 5.41104H141.946V7.56802H136.342V11.0016H141.4V13.1586H136.342V16.9884H141.946V19.1454H133.426V5.41104Z" fill="#536483"/>
<path fill-rule="evenodd" clip-rule="evenodd" d="M10.9462 23.2233L0.657803 18.5748C-0.218617 18.1689 -0.218617 17.5417 0.657803 17.1728L4.23969 15.5495L10.9081 18.5748C11.7845 18.9805 13.1945 18.9805 14.0327 18.5748L20.7011 15.5495L24.2831 17.1728C25.1595 17.5786 25.1595 18.2058 24.2831 18.5748L13.9946 23.2233C13.1945 23.5923 11.7845 23.5923 10.9462 23.2233Z" fill="url(#paint0_linear_35_365)"/>
<path fill-rule="evenodd" clip-rule="evenodd" d="M10.9462 17.2842L0.657803 12.6356C-0.218617 12.2298 -0.218617 11.6026 0.657803 11.2336L4.16348 9.64722L10.9462 12.7094C11.8226 13.1152 13.2325 13.1152 14.0708 12.7094L20.8536 9.64722L24.3592 11.2336C25.2357 11.6395 25.2357 12.2667 24.3592 12.6356L14.0708 17.2842C13.1945 17.69 11.7845 17.69 10.9462 17.2842Z" fill="url(#paint1_linear_35_365)"/>
<path fill-rule="evenodd" clip-rule="evenodd" d="M10.9457 11.5034L0.657315 6.85489C-0.219105 6.44906 -0.219105 5.82187 0.657315 5.45294L10.9457 0.804371C11.8221 0.398543 13.232 0.398543 14.0704 0.804371L24.3588 5.45294C25.2352 5.85877 25.2352 6.48596 24.3588 6.85489L14.0704 11.5034C13.1939 11.8724 11.7841 11.8724 10.9457 11.5034Z" fill="url(#paint2_linear_35_365)"/>
<defs>
<linearGradient id="paint0_linear_35_365" x1="39.1185" y1="27.6296" x2="39.1185" y2="10.6582" gradientUnits="userSpaceOnUse">
<stop stop-color="#FCC2B1"/>
<stop offset="0.8848" stop-color="#D9420B"/>
</linearGradient>
<linearGradient id="paint1_linear_35_365" x1="30.0799" y1="20.0609" x2="30.0799" y2="8.89921" gradientUnits="userSpaceOnUse">
<stop stop-color="#DEEDC9"/>
<stop offset="0.6606" stop-color="#8BBA25"/>
</linearGradient>
<linearGradient id="paint2_linear_35_365" x1="29.3409" y1="15.3314" x2="29.3409" y2="0.142909" gradientUnits="userSpaceOnUse">
<stop stop-color="#C2EBFA"/>
<stop offset="1" stop-color="#26A8DE"/>
</linearGradient>
</defs>
</svg>
