<svg width="142" height="24" viewBox="0 0 142 24" fill="none" xmlns="http://www.w3.org/2000/svg">
<path fill-rule="evenodd" clip-rule="evenodd" d="M11.8499 23.7059L0.711612 18.7649C-0.237204 18.3335 -0.237204 17.6669 0.711612 17.2748L4.58938 15.5493L11.8086 18.7649C12.7574 19.1963 14.2838 19.1963 15.1914 18.7649L22.4106 15.5493L26.2884 17.2748C27.2372 17.7061 27.2372 18.3728 26.2884 18.7649L15.1501 23.7059C14.2838 24.0981 12.7574 24.0981 11.8499 23.7059Z" fill="#FF6F3D"/>
<path fill-rule="evenodd" clip-rule="evenodd" d="M11.8138 17.5916L0.709444 12.6449C-0.236481 12.213 -0.236481 11.5456 0.709444 11.153L4.49315 9.46484L11.8138 12.7234C12.7597 13.1553 14.2814 13.1553 15.1862 12.7234L22.5069 9.46484L26.2906 11.153C27.2365 11.5849 27.2365 12.2523 26.2906 12.6449L15.1862 17.5916C14.2403 18.0235 12.7186 18.0235 11.8138 17.5916Z" fill="#95C038"/>
<path fill-rule="evenodd" clip-rule="evenodd" d="M11.8138 11.5408L0.709444 6.66521C-0.236481 6.23956 -0.236481 5.58175 0.709444 5.1948L11.8138 0.319234C12.7597 -0.106411 14.2814 -0.106411 15.1862 0.319234L26.2906 5.1948C27.2365 5.62044 27.2365 6.27826 26.2906 6.66521L15.1862 11.5408C14.2403 11.9277 12.7186 11.9277 11.8138 11.5408Z" fill="#5DC0E8"/>
<path d="M41.7217 5.87256C38.514 5.87256 35.3618 7.65266 35.3618 12.0002C35.3618 16.3478 38.514 18.1279 41.7217 18.1279C44.9295 18.1279 48.0816 16.3478 48.0816 12.0002C48.0816 7.65266 44.9295 5.87256 41.7217 5.87256ZM41.7217 7.58419C42.7044 7.58419 45.3003 7.94364 45.3003 12.0002C45.3003 16.0568 42.7044 16.4162 41.7217 16.4162C40.739 16.4162 38.1431 16.0568 38.1431 12.0002C38.1431 7.94364 40.739 7.58419 41.7217 7.58419Z" fill="#333333"/>
<path d="M50.2207 6.00949V17.9909H52.8537V10.939L52.7981 8.81657H52.8537L53.5027 10.1516L58.0269 17.9909H61.4386V6.00949H58.8057V13.0614L58.8613 15.1839H58.8057L58.1196 13.5578L53.6325 6.00949H50.2207Z" fill="#333333"/>
<path d="M64.0367 6.00949V17.9909H71.8243V15.9712H66.6697V6.00949H64.0367Z" fill="#333333"/>
<path d="M69.5993 6.00949L74.3831 13.0957V17.9909H77.0161V13.1299L81.6887 6.00949H78.9074L76.2188 10.2201L75.7738 11.0417H75.7181L75.3102 10.2201L72.6402 6.00949H69.5993Z" fill="#333333"/>
<path d="M87.8232 5.87256C84.6154 5.87256 81.4633 7.65266 81.4633 12.0002C81.4633 16.3478 84.6154 18.1279 87.8232 18.1279C91.0309 18.1279 94.1831 16.3478 94.1831 12.0002C94.1831 7.65266 91.0309 5.87256 87.8232 5.87256ZM87.8232 7.58419C88.8059 7.58419 91.4018 7.94364 91.4018 12.0002C91.4018 16.0568 88.8059 16.4162 87.8232 16.4162C86.8404 16.4162 84.2446 16.0568 84.2446 12.0002C84.2446 7.94364 86.8404 7.58419 87.8232 7.58419Z" fill="#333333"/>
<path d="M96.3222 6.00949V17.9909H98.9552V12.9074H103.368V10.939H98.9552V8.02922H103.591V6.00949H96.3222Z" fill="#333333"/>
<path d="M105.448 6.00949V17.9909H108.081V12.9074H112.494V10.939H108.081V8.02922H112.717V6.00949H105.448Z" fill="#333333"/>
<path d="M114.574 17.9909H117.207V6.00949H114.574V17.9909Z" fill="#333333"/>
<path d="M129.282 15.5775C128.633 15.8514 127.725 16.1081 126.575 16.1081C124.239 16.1081 122.125 14.9271 122.125 12.0345C122.125 9.58681 123.85 7.89229 126.761 7.89229C127.743 7.89229 128.578 8.06345 129.338 8.33732L129.449 6.28335C128.467 5.99237 127.595 5.87256 126.575 5.87256C122.496 5.87256 119.344 7.94364 119.344 12.0687C119.344 16.4334 122.867 18.1279 126.093 18.1279C127.132 18.1279 128.3 17.9738 129.449 17.6144L129.282 15.5775Z" fill="#333333"/>
<path d="M131.487 6.00949V17.9909H139.237V15.8685H134.12V12.8047H138.774V10.8363H134.12V8.13192H139.237V6.00949H131.487Z" fill="#333333"/>
</svg>
