<svg width="32" height="42" viewBox="0 0 32 42" fill="none" xmlns="http://www.w3.org/2000/svg">
<path d="M31.5 6.46154V40.9231C31.5 41.2087 31.3894 41.4826 31.1925 41.6846C30.9955 41.8865 30.7285 42 30.45 42H1.05C0.771523 42 0.504451 41.8865 0.307538 41.6846C0.110625 41.4826 0 41.2087 0 40.9231V1.07692C0 0.791305 0.110625 0.517386 0.307538 0.315424C0.504451 0.113461 0.771523 0 1.05 0H25.2L31.5 6.46154Z" fill="#3C6D88"/>
<path opacity="0.2" d="M31.5002 6.46154H26.2502C25.9717 6.46154 25.7046 6.34808 25.5077 6.14611C25.3108 5.94415 25.2002 5.67023 25.2002 5.38461V0L31.5002 6.46154Z" fill="black"/>
<path d="M14.4189 36.9559C14.4189 37.4529 14.2956 37.835 14.0492 38.102C13.8027 38.369 13.4494 38.5025 12.9893 38.5025C12.5293 38.5025 12.176 38.369 11.9295 38.102C11.683 37.835 11.5598 37.4516 11.5598 36.9518C11.5598 36.452 11.683 36.0707 11.9295 35.8078C12.1774 35.5435 12.532 35.4113 12.9934 35.4113C13.4549 35.4113 13.8075 35.5442 14.0512 35.8098C14.2963 36.0754 14.4189 36.4575 14.4189 36.9559ZM12.2273 36.9559C12.2273 37.2914 12.291 37.544 12.4183 37.7138C12.5457 37.8836 12.736 37.9685 12.9893 37.9685C13.4973 37.9685 13.7513 37.631 13.7513 36.9559C13.7513 36.2795 13.4987 35.9413 12.9934 35.9413C12.7401 35.9413 12.5491 36.0268 12.4204 36.198C12.2917 36.3678 12.2273 36.6204 12.2273 36.9559ZM17.5326 36.9313C17.5326 37.4256 17.3916 37.8042 17.1095 38.0671C16.8288 38.33 16.4228 38.4614 15.8915 38.4614H15.0412V35.4586H15.984C16.4742 35.4586 16.8548 35.588 17.1259 35.8468C17.3971 36.1056 17.5326 36.4671 17.5326 36.9313ZM16.8713 36.9477C16.8713 36.3027 16.5864 35.9803 16.0168 35.9803H15.6779V37.9356H15.9511C16.5645 37.9356 16.8713 37.6063 16.8713 36.9477ZM19.3134 38.4614H18.6767V35.9885H17.8613V35.4586H20.1288V35.9885H19.3134V38.4614Z" fill="white"/>
<path d="M25.55 17.1371L25.4485 17.0833C24.6783 16.7036 23.8294 16.5225 22.9755 16.5556C22.1216 16.5888 21.2885 16.8352 20.5485 17.2735C19.7879 16.8307 18.9311 16.5908 18.0567 16.5758C17.1822 16.5607 16.3181 16.771 15.5435 17.1874H15.5155C15.5046 17.1957 15.4958 17.2066 15.4897 17.219C15.4836 17.2315 15.4805 17.2452 15.4805 17.2592C15.4805 17.2839 15.4901 17.3077 15.5071 17.3252C15.5242 17.3427 15.5473 17.3525 15.5715 17.3525H15.5925C16.07 17.2605 16.5579 17.2388 17.0415 17.2879C18.4415 17.4207 19.642 17.8622 20.4925 18.853C20.538 18.8997 20.5765 18.8961 20.622 18.853C21.7 17.5894 23.338 17.0869 25.102 17.2556C25.2 17.2556 25.298 17.2771 25.3925 17.2951H25.508C25.52 17.2967 25.5323 17.2956 25.5438 17.2918C25.5553 17.2879 25.5659 17.2814 25.5746 17.2728C25.5834 17.2641 25.5901 17.2536 25.5943 17.2419C25.5986 17.2302 25.6001 17.2177 25.599 17.2053C25.5969 17.1907 25.5914 17.1768 25.5828 17.1649C25.5743 17.153 25.563 17.1435 25.55 17.1371Z" fill="white"/>
<path d="M23.5064 21.6139C22.0859 21.0099 20.5392 20.7849 19.0109 20.9601C17.4826 21.1352 16.0225 21.7047 14.7669 22.6155C13.3582 21.9727 11.8132 21.7077 10.2772 21.8452C8.74115 21.9827 7.26436 22.5183 5.98545 23.4016H5.96795C5.95293 23.4151 5.94081 23.4316 5.93238 23.4502C5.92394 23.4687 5.91936 23.4888 5.91895 23.5093C5.91893 23.5458 5.93283 23.5809 5.95768 23.6071C5.98253 23.6332 6.01635 23.6484 6.05195 23.6493H6.07995C6.93041 23.3877 7.81354 23.2546 8.70145 23.2544C11.1269 23.2544 13.2864 23.8432 14.9104 25.4083C14.9349 25.4295 14.9659 25.441 14.9979 25.4406C15.018 25.4411 15.038 25.4369 15.0562 25.4282C15.0745 25.4195 15.0904 25.4065 15.1029 25.3903L15.1799 25.279C16.8319 22.9637 19.5549 21.8221 22.5859 21.8221C22.8029 21.8221 23.0164 21.8221 23.2299 21.8437H23.4224C23.4584 21.8428 23.4926 21.8277 23.518 21.8017C23.5434 21.7756 23.5581 21.7405 23.5589 21.7037C23.5564 21.6859 23.5504 21.6688 23.5414 21.6534C23.5324 21.638 23.5205 21.6246 23.5064 21.6139Z" fill="white"/>
</svg>
