<svg width="32" height="42" viewBox="0 0 32 42" fill="none" xmlns="http://www.w3.org/2000/svg">
<path d="M31.9404 6.46154V40.9231C31.9404 41.2087 31.8298 41.4826 31.6329 41.6846C31.436 41.8865 31.1689 42 30.8904 42H1.49043C1.21195 42 0.944881 41.8865 0.747968 41.6846C0.551054 41.4826 0.44043 41.2087 0.44043 40.9231V1.07692C0.44043 0.791305 0.551054 0.517386 0.747968 0.315424C0.944881 0.113461 1.21195 0 1.49043 0H25.6404L31.9404 6.46154Z" fill="#3C6D88"/>
<path opacity="0.2" d="M31.9406 6.46154H26.6906C26.4121 6.46154 26.1451 6.34808 25.9482 6.14611C25.7512 5.94415 25.6406 5.67023 25.6406 5.38461V0L31.9406 6.46154Z" fill="black"/>
<path d="M14.8555 36.9559C14.8555 37.4529 14.7322 37.835 14.4858 38.102C14.2393 38.369 13.886 38.5025 13.4259 38.5025C12.9658 38.5025 12.6126 38.369 12.3661 38.102C12.1196 37.835 11.9964 37.4516 11.9964 36.9518C11.9964 36.452 12.1196 36.0707 12.3661 35.8078C12.6139 35.5435 12.9686 35.4113 13.43 35.4113C13.8915 35.4113 14.2441 35.5442 14.4878 35.8098C14.7329 36.0754 14.8555 36.4575 14.8555 36.9559ZM12.6639 36.9559C12.6639 37.2914 12.7276 37.544 12.8549 37.7138C12.9823 37.8836 13.1726 37.9685 13.4259 37.9685C13.9339 37.9685 14.1879 37.631 14.1879 36.9559C14.1879 36.2795 13.9353 35.9413 13.43 35.9413C13.1767 35.9413 12.9857 36.0268 12.857 36.198C12.7283 36.3678 12.6639 36.6204 12.6639 36.9559ZM16.6362 38.4614H15.9995V35.9885H15.1841V35.4586H17.4516V35.9885H16.6362V38.4614ZM19.0722 38.4614H18.4355V35.9885H17.62V35.4586H19.8876V35.9885H19.0722V38.4614Z" fill="white"/>
<path d="M25.9904 17.1371L25.8889 17.0833C25.1187 16.7036 24.2698 16.5225 23.4159 16.5556C22.562 16.5888 21.7289 16.8352 20.9889 17.2735C20.2283 16.8307 19.3715 16.5908 18.4971 16.5758C17.6227 16.5607 16.7585 16.771 15.9839 17.1874H15.9559C15.945 17.1957 15.9362 17.2066 15.9301 17.219C15.9241 17.2315 15.9209 17.2452 15.9209 17.2592C15.9209 17.2839 15.9305 17.3077 15.9476 17.3252C15.9646 17.3427 15.9878 17.3525 16.0119 17.3525H16.0329C16.5105 17.2605 16.9984 17.2388 17.4819 17.2879C18.8819 17.4207 20.0824 17.8622 20.9329 18.853C20.9784 18.8997 21.0169 18.8961 21.0624 18.853C22.1404 17.5894 23.7784 17.0869 25.5424 17.2556C25.6404 17.2556 25.7384 17.2771 25.8329 17.2951H25.9484C25.9604 17.2967 25.9727 17.2956 25.9842 17.2918C25.9958 17.2879 26.0063 17.2814 26.0151 17.2728C26.0238 17.2641 26.0306 17.2536 26.0348 17.2419C26.039 17.2302 26.0406 17.2177 26.0394 17.2053C26.0373 17.1907 26.0318 17.1768 26.0232 17.1649C26.0147 17.153 26.0034 17.1435 25.9904 17.1371Z" fill="white"/>
<path d="M23.9464 21.6139C22.5258 21.0099 20.9792 20.7849 19.4508 20.9601C17.9225 21.1352 16.4624 21.7047 15.2069 22.6155C13.7981 21.9727 12.2532 21.7077 10.7171 21.8452C9.18109 21.9827 7.70431 22.5183 6.42539 23.4016H6.40789C6.39287 23.4151 6.38075 23.4316 6.37232 23.4502C6.36388 23.4687 6.35931 23.4888 6.35889 23.5093C6.35888 23.5458 6.37277 23.5809 6.39762 23.6071C6.42247 23.6332 6.4563 23.6484 6.49189 23.6493H6.51989C7.37036 23.3877 8.25348 23.2546 9.14139 23.2544C11.5669 23.2544 13.7264 23.8432 15.3504 25.4083C15.3748 25.4295 15.4059 25.441 15.4379 25.4406C15.458 25.4411 15.4779 25.4369 15.4962 25.4282C15.5144 25.4195 15.5304 25.4065 15.5429 25.3903L15.6199 25.279C17.2719 22.9637 19.9949 21.8221 23.0259 21.8221C23.2429 21.8221 23.4564 21.8221 23.6699 21.8437H23.8624C23.8983 21.8428 23.9325 21.8277 23.9579 21.8017C23.9833 21.7756 23.998 21.7405 23.9989 21.7037C23.9963 21.6859 23.9904 21.6688 23.9814 21.6534C23.9723 21.638 23.9605 21.6246 23.9464 21.6139Z" fill="white"/>
<path d="M4.61963 4.12783C4.61963 3.74064 4.93351 3.42676 5.3207 3.42676H8.82607C9.21326 3.42676 9.52714 3.74064 9.52714 4.12783V8.07622C9.52714 8.46341 9.21326 8.77729 8.82607 8.77729H5.3207C4.93351 8.77729 4.61963 8.46341 4.61963 8.07622V4.12783Z" fill="white"/>
<path d="M7.31561 7.42676H6.82472V4.84497H5.94153V4.42392H8.19879V4.84497H7.31561V7.42676Z" fill="#3C6D88"/>
</svg>
