<svg width="32" height="43" viewBox="0 0 32 43" fill="none" xmlns="http://www.w3.org/2000/svg">
<path d="M31.5 7.07043V41.532C31.5 41.8176 31.3894 42.0915 31.1925 42.2935C30.9955 42.4954 30.7285 42.6089 30.45 42.6089H1.05C0.771523 42.6089 0.504451 42.4954 0.307538 42.2935C0.110625 42.0915 0 41.8176 0 41.532V1.68581C0 1.40019 0.110625 1.12627 0.307538 0.92431C0.504451 0.722348 0.771523 0.608887 1.05 0.608887H25.2L31.5 7.07043Z" fill="#BA4C3F"/>
<path opacity="0.2" d="M31.5002 7.07043H26.2502C25.9717 7.07042 25.7046 6.95696 25.5077 6.755C25.3108 6.55304 25.2002 6.27912 25.2002 5.9935V0.608887L31.5002 7.07043Z" fill="black"/>
<path d="M12.8207 37.4806H13.0302C13.2261 37.4806 13.3726 37.4422 13.4698 37.3656C13.567 37.2875 13.6156 37.1745 13.6156 37.0267C13.6156 36.8774 13.5745 36.7672 13.4924 36.696C13.4116 36.6248 13.2842 36.5892 13.1103 36.5892H12.8207V37.4806ZM14.2585 37.0041C14.2585 37.3272 14.1572 37.5744 13.9545 37.7455C13.7532 37.9167 13.4664 38.0023 13.0939 38.0023H12.8207V39.0703H12.184V36.0675H13.1432C13.5074 36.0675 13.784 36.1462 13.973 36.3037C14.1633 36.4598 14.2585 36.6932 14.2585 37.0041ZM17.3168 37.5401C17.3168 38.0344 17.1758 38.4131 16.8937 38.676C16.613 38.9389 16.207 39.0703 15.6757 39.0703H14.8254V36.0675H15.7681C16.2583 36.0675 16.639 36.1969 16.9101 36.4557C17.1812 36.7145 17.3168 37.076 17.3168 37.5401ZM16.6554 37.5566C16.6554 36.9116 16.3706 36.5892 15.801 36.5892H15.4621V38.5445H15.7353C16.3487 38.5445 16.6554 38.2152 16.6554 37.5566ZM18.5656 39.0703H17.9391V36.0675H19.6603V36.5892H18.5656V37.3635H19.5843V37.8831H18.5656V39.0703Z" fill="white"/>
<path d="M12.3967 22.754C12.9497 21.6269 13.5937 20.3525 14.1047 19.0817L14.3077 18.5792C13.6427 15.9766 13.2402 13.8874 13.6077 12.5376C13.6826 12.3561 13.8118 12.2037 13.9766 12.1024C14.1414 12.0011 14.3333 11.9562 14.5247 11.974H14.8327C15.4137 11.974 15.6867 12.7243 15.7182 13.0187C15.7235 13.4649 15.6669 13.9097 15.5502 14.3397C15.5776 13.8818 15.5109 13.4232 15.3542 12.9935C15.1057 12.4551 14.8747 12.132 14.6682 12.0961C14.5948 12.1566 14.5353 12.2331 14.4942 12.32C14.453 12.4069 14.4312 12.5021 14.4302 12.5987C14.3731 12.9775 14.3462 13.3605 14.3497 13.7438C14.3723 14.8878 14.543 16.0238 14.8572 17.1217C14.9202 16.9279 14.9762 16.7628 15.0252 16.5689C15.0952 16.2961 15.5467 14.4833 15.5467 14.4833C15.5467 14.4833 15.4312 16.8956 15.2737 17.6279C15.2387 17.7822 15.2002 17.9366 15.1617 18.091C15.6949 19.6571 16.5783 21.0734 17.7412 22.2264C18.2054 22.6289 18.7113 22.978 19.2497 23.2674C20.2517 23.1118 21.2638 23.0338 22.2772 23.034C23.4252 23.034 24.2687 23.2243 24.6082 23.5689C24.7566 23.7309 24.8424 23.9427 24.8497 24.1648C24.8434 24.2857 24.827 24.4058 24.8007 24.5238C24.8007 24.4592 24.8007 24.1648 23.8907 23.8489C23.1662 23.612 21.7907 23.6192 20.1772 23.7951C22.0637 24.7428 23.9012 25.231 24.4822 24.9294C24.6047 24.8457 24.7115 24.7399 24.7972 24.6171C24.7557 24.821 24.6959 25.0204 24.6187 25.213C24.5043 25.3643 24.3463 25.4749 24.1672 25.5289C23.2467 25.7838 20.8562 25.1987 18.7702 23.9781C16.4159 24.3447 14.0947 24.9077 11.8297 25.6617C9.7997 29.2838 8.2982 30.9458 7.0662 30.314L6.6147 30.0807C6.53168 30.0125 6.47082 29.92 6.44019 29.8155C6.40957 29.711 6.41062 29.5995 6.4432 29.4956C6.5867 28.7776 7.4687 27.7007 9.2432 26.6023C9.4357 26.4838 10.2932 26.0243 10.2932 26.0243C10.2932 26.0243 9.6667 26.6489 9.5197 26.771C8.1197 27.9592 7.0697 29.4525 7.0872 30.034V30.0843C8.2877 29.9084 10.0867 27.3992 12.4037 22.754H12.3967ZM13.1387 23.1381C12.7502 23.8848 12.3722 24.574 12.0222 25.2166C13.9522 24.4236 15.9583 23.8412 18.0072 23.4792C17.7412 23.2889 17.4857 23.0915 17.2407 22.8797C16.1786 21.9468 15.3138 20.8009 14.6997 19.5125C14.2536 20.7566 13.725 21.968 13.1177 23.1381" fill="white"/>
</svg>
