<svg width="32" height="43" viewBox="0 0 32 43" fill="none" xmlns="http://www.w3.org/2000/svg">
<path d="M31.5 6.67931V41.1409C31.5 41.7511 31.045 42.2178 30.45 42.2178H1.05C0.455 42.2178 0 41.7511 0 41.1409V1.2947C0 0.68444 0.455 0.217773 1.05 0.217773H25.2L31.5 6.67931Z" fill="#635E9B"/>
<path opacity="0.2" d="M31.5002 6.67931H26.2502C25.6552 6.67931 25.2002 6.21265 25.2002 5.60239V0.217773L31.5002 6.67931Z" fill="black"/>
<path d="M24.5 12.4229H15.75V13.1408H24.5V12.4229Z" fill="white"/>
<path d="M24.5 14.5767H15.75V15.2946H24.5V14.5767Z" fill="white"/>
<path d="M24.5 16.731H15.75V17.4489H24.5V16.731Z" fill="white"/>
<path d="M24.5 18.8843H15.75V19.6022H24.5V18.8843Z" fill="white"/>
<path d="M24.5001 21.0386H7.3501V21.7565H24.5001V21.0386Z" fill="white"/>
<path d="M24.5001 23.1924H7.3501V23.9103H24.5001V23.1924Z" fill="white"/>
<path d="M24.5001 25.3462H7.3501V26.0641H24.5001V25.3462Z" fill="white"/>
<path d="M24.5001 27.5H7.3501V28.2179H24.5001V27.5Z" fill="white"/>
<path d="M24.5001 29.6538H7.3501V30.3718H24.5001V29.6538Z" fill="white"/>
<path d="M14.3501 12.4229H7.3501V19.6023H14.3501V12.4229Z" fill="white"/>
<path d="M12.9239 37.0094H13.1293C13.3306 37.0094 13.4792 36.9758 13.575 36.9087C13.6709 36.8416 13.7188 36.7362 13.7188 36.5924C13.7188 36.45 13.6695 36.3487 13.5709 36.2884C13.4737 36.2282 13.3224 36.1981 13.117 36.1981H12.9239V37.0094ZM12.9239 37.5269V38.6792H12.2872V35.6764H13.1622C13.5702 35.6764 13.8722 35.751 14.068 35.9002C14.2638 36.0481 14.3617 36.2734 14.3617 36.576C14.3617 36.7526 14.3131 36.9101 14.2158 37.0484C14.1186 37.1853 13.981 37.2928 13.803 37.3708C14.2549 38.0459 14.5493 38.482 14.6862 38.6792H13.9796L13.2628 37.5269H12.9239ZM16.2225 38.6792H15.5858V36.2063H14.7704V35.6764H17.0379V36.2063H16.2225V38.6792ZM18.1265 38.6792H17.5001V35.6764H19.2213V36.1981H18.1265V36.9724H19.1453V37.492H18.1265V38.6792Z" fill="white"/>
</svg>
