<svg width="16" height="16" viewBox="0 0 16 16" fill="none" xmlns="http://www.w3.org/2000/svg">
<path fill-rule="evenodd" clip-rule="evenodd" d="M7 3C4.79086 3 3 4.79086 3 7C3 9.20914 4.79086 11 7 11C8.11917 11 9.12948 10.5417 9.85662 9.79996C10.5649 9.07743 11 8.09052 11 7C11 4.79086 9.20914 3 7 3ZM1 7C1 3.68629 3.68629 1 7 1C10.3137 1 13 3.68629 13 7C13 8.27975 12.5985 9.46696 11.9157 10.441L15.7127 14.2985L14.2873 15.7015L10.5116 11.8655C9.52464 12.5788 8.31096 13 7 13C3.68629 13 1 10.3137 1 7Z" fill="#D0D5DA"/>
</svg>
