<svg width="32" height="43" viewBox="0 0 32 43" fill="none" xmlns="http://www.w3.org/2000/svg">
<path d="M31.7202 6.75695V41.2185C31.7202 41.5041 31.6096 41.778 31.4127 41.98C31.2158 42.1819 30.9487 42.2954 30.6702 42.2954H1.27021C0.991738 42.2954 0.724666 42.1819 0.527753 41.98C0.33084 41.778 0.220215 41.5041 0.220215 41.2185V1.37233C0.220215 1.08672 0.33084 0.812796 0.527753 0.610834C0.724666 0.408871 0.991738 0.29541 1.27021 0.29541H25.4202L31.7202 6.75695Z" fill="#7C7C7D"/>
<path opacity="0.2" d="M31.7199 6.75695H26.4699C26.1914 6.75695 25.9244 6.64349 25.7275 6.44152C25.5305 6.23956 25.4199 5.96564 25.4199 5.68003V0.29541L31.7199 6.75695Z" fill="black"/>
<path d="M13.2626 38.7568H12.6258V36.2839H11.8104V35.754H14.078V36.2839H13.2626V38.7568ZM16.9678 38.7568H16.2408L15.5424 37.621L14.8441 38.7568H14.1622L15.1583 37.2082L14.2259 35.754H14.9283L15.5753 36.8344L16.2099 35.754H16.896L15.9532 37.2431L16.9678 38.7568ZM18.5042 38.7568H17.8675V36.2839H17.0521V35.754H19.3196V36.2839H18.5042V38.7568Z" fill="white"/>
<path d="M24.3702 12.1416H7.22021V12.8596H24.3702V12.1416Z" fill="white"/>
<path d="M24.3702 14.2949H7.22021V15.0129H24.3702V14.2949Z" fill="white"/>
<path d="M24.3702 16.4492H7.22021V17.1672H24.3702V16.4492Z" fill="white"/>
<path d="M24.3702 18.603H7.22021V19.321H24.3702V18.603Z" fill="white"/>
<path d="M24.3702 20.7568H7.22021V21.4748H24.3702V20.7568Z" fill="white"/>
<path d="M24.3702 22.9106H7.22021V23.6286H24.3702V22.9106Z" fill="white"/>
<path d="M24.3702 25.0645H7.22021V25.7824H24.3702V25.0645Z" fill="white"/>
<path d="M24.3702 27.2183H7.22021V27.9362H24.3702V27.2183Z" fill="white"/>
<path d="M24.3702 29.3721H7.22021V30.09H24.3702V29.3721Z" fill="white"/>
</svg>
